<?xml version="1.0" standalone="no"?>
<!DOCTYPE svg PUBLIC "-//W3C//DTD SVG 20010904//EN"
 "http://www.w3.org/TR/2001/REC-SVG-20010904/DTD/svg10.dtd">
<svg version="1.0" xmlns="http://www.w3.org/2000/svg"
 width="700.000000pt" height="700.000000pt" viewBox="0 0 700.000000 700.000000"
 preserveAspectRatio="xMidYMid meet">
<metadata>
Created by potrace 1.14, written by Peter Selinger 2001-2017
</metadata>
<g transform="translate(0.000000,700.000000) scale(0.100000,-0.100000)"
fill="#000000" stroke="none">
<path d="M1589 6996 c-2 -2 -28 -6 -57 -10 -274 -32 -527 -124 -751 -273 -115
-77 -192 -141 -287 -239 -269 -276 -431 -615 -482 -1004 -4 -30 -7 -923 -7
-1985 0 -1830 1 -1935 18 -2034 98 -554 440 -1017 932 -1264 50 -25 101 -48
115 -52 14 -4 30 -11 35 -15 20 -16 215 -72 295 -86 14 -2 34 -6 45 -8 83 -18
356 -21 2045 -21 1695 0 2043 3 2068 19 4 2 25 7 47 10 135 22 397 118 510
189 187 116 264 174 376 286 265 266 429 592 489 976 17 102 18 255 18 2000 0
1040 -4 1923 -8 1963 -13 110 -19 139 -45 242 -125 495 -453 901 -916 1131
-126 63 -300 121 -451 151 l-113 23 -1936 2 c-1065 2 -1938 1 -1940 -1z m3781
-1316 c150 -41 261 -149 305 -298 17 -57 18 -108 19 -610 1 -301 0 -555 -3
-565 -2 -11 -7 -14 -15 -9 -6 5 -20 12 -31 15 -11 3 -51 17 -90 31 -321 120
-710 159 -1060 106 -33 -5 -76 -11 -95 -14 -40 -6 -223 -52 -260 -66 -293
-107 -493 -215 -688 -372 -134 -107 -285 -260 -374 -378 -60 -80 -128 -178
-128 -184 0 -4 -12 -25 -27 -49 -47 -74 -159 -313 -168 -357 -1 -3 -14 -43
-29 -90 -45 -140 -69 -255 -92 -450 -8 -69 -8 -339 0 -402 3 -27 9 -69 12 -95
3 -27 12 -82 21 -123 8 -41 16 -82 18 -90 13 -64 72 -248 104 -322 14 -33 16
-47 8 -50 -7 -2 -262 -3 -567 -2 -603 1 -601 1 -705 59 -97 54 -169 144 -201
251 -16 55 -18 180 -18 1849 -1 985 2 1819 6 1855 22 191 191 356 378 369 25
1 46 4 47 4 1 1 808 1 1795 1 1393 -1 1803 -4 1838 -14z m-378 -2655 c250 -51
472 -224 591 -460 25 -51 53 -126 61 -167 19 -96 23 -123 25 -189 12 -417
-285 -785 -695 -863 -319 -60 -634 59 -839 317 -202 254 -236 619 -86 915 175
343 562 526 943 447z"/>
</g>
</svg>
